<svg width="32" height="32" viewBox="0 0 32 32" fill="none" xmlns="http://www.w3.org/2000/svg">
<path d="M24.4853 7.51472C29.1716 12.201 29.1716 19.799 24.4853 24.4853C19.7991 29.1715 12.2011 29.1715 7.51481 24.4853C2.82852 19.799 2.82852 12.201 7.51481 7.51472C12.2011 2.82843 19.7991 2.82843 24.4853 7.51472" stroke="#007BFC" stroke-width="2" stroke-linecap="round" stroke-linejoin="round"/>
<path fill-rule="evenodd" clip-rule="evenodd" d="M18.2733 20.444H14.5307C13.7067 20.444 13.0373 19.776 13.0373 18.9507V16.068H18.2733C19.472 16.068 20.4453 17.04 20.4453 18.24V18.2733C20.444 19.472 19.472 20.444 18.2733 20.444V20.444Z" stroke="#007BFC" stroke-width="2" stroke-linecap="round" stroke-linejoin="round"/>
<path fill-rule="evenodd" clip-rule="evenodd" d="M17.7467 16.068H13.0373V13.072C13.0373 12.2347 13.716 11.556 14.5533 11.556H17.7467C18.964 11.556 19.952 12.5427 19.952 13.7613V13.864C19.952 15.0813 18.9653 16.068 17.7467 16.068Z" stroke="#007BFC" stroke-width="2" stroke-linecap="round" stroke-linejoin="round"/>
<path d="M14.52 11.56H11.56" stroke="#007BFC" stroke-width="2" stroke-linecap="round" stroke-linejoin="round"/>
<path d="M14.5333 20.44H11.56" stroke="#007BFC" stroke-width="2" stroke-linecap="round" stroke-linejoin="round"/>
<path d="M17.64 10.08V11.56" stroke="#007BFC" stroke-width="2" stroke-linecap="round" stroke-linejoin="round"/>
<path d="M14 10.08V11.56" stroke="#007BFC" stroke-width="2" stroke-linecap="round" stroke-linejoin="round"/>
<path d="M14 21.92V20.44" stroke="#007BFC" stroke-width="2" stroke-linecap="round" stroke-linejoin="round"/>
<path d="M17.64 21.92V20.44" stroke="#007BFC" stroke-width="2" stroke-linecap="round" stroke-linejoin="round"/>
</svg>
