<svg width="333" height="2" viewBox="0 0 333 2" fill="none" xmlns="http://www.w3.org/2000/svg">
<path d="M332 2C332.552 2 333 1.55228 333 1C333 0.447715 332.552 0 332 0V2ZM0 2L3.95238 2V0L0 0L0 2ZM7.90476 2L15.8095 2V0L7.90476 0V2ZM19.7619 2L27.6667 2V0L19.7619 0V2ZM31.619 2L39.5238 2V0L31.619 0V2ZM43.4762 2L51.3809 2V0L43.4762 0V2ZM55.3333 2L63.2381 2V0L55.3333 0V2ZM67.1905 2L75.0952 2V0L67.1905 0V2ZM79.0476 2L86.9524 2V0L79.0476 0V2ZM90.9047 2L98.8095 2V0L90.9047 0V2ZM102.762 2L110.667 2V0L102.762 0V2ZM114.619 2L122.524 2V0L114.619 0V2ZM126.476 2L134.381 2V0L126.476 0V2ZM138.333 2L146.238 2V0L138.333 0V2ZM150.19 2L158.095 2V0L150.19 0V2ZM162.048 2L169.952 2V0L162.048 0V2ZM173.905 2L181.809 2V0L173.905 0V2ZM185.762 2L193.667 2V0L185.762 0V2ZM197.619 2L205.524 2V0L197.619 0V2ZM209.476 2L217.381 2V0L209.476 0V2ZM221.333 2L229.238 2V0L221.333 0V2ZM233.19 2L241.095 2V0L233.19 0V2ZM245.047 2L252.952 2V0L245.047 0V2ZM256.905 2L264.809 2V0L256.905 0V2ZM268.762 2L276.667 2V0L268.762 0V2ZM280.619 2L288.524 2V0L280.619 0V2ZM292.476 2L300.381 2V0L292.476 0V2ZM304.333 2L312.238 2V0L304.333 0V2ZM316.19 2L324.095 2V0L316.19 0V2ZM328.048 2L332 2V0L328.048 0V2Z" fill="#DADCE0"/>
</svg>
