<svg width="32" height="32" viewBox="0 0 32 32" fill="none" xmlns="http://www.w3.org/2000/svg">
<path d="M9.33334 19.3333H8.66668" stroke="#007BFC" stroke-width="1.5319" stroke-linecap="round" stroke-linejoin="round"/>
<path d="M16.6667 19.3333H16" stroke="#007BFC" stroke-width="1.5319" stroke-linecap="round" stroke-linejoin="round"/>
<path d="M15.4933 22.16L15.0267 21.6933" stroke="#007BFC" stroke-width="1.5319" stroke-linecap="round" stroke-linejoin="round"/>
<path d="M9.84001 16.5067L10.3067 16.9733" stroke="#007BFC" stroke-width="1.5319" stroke-linecap="round" stroke-linejoin="round"/>
<path d="M12.6667 15.3333V16" stroke="#007BFC" stroke-width="1.5319" stroke-linecap="round" stroke-linejoin="round"/>
<path d="M12.6667 23.3333V22.6667" stroke="#007BFC" stroke-width="1.5319" stroke-linecap="round" stroke-linejoin="round"/>
<path d="M9.84001 22.16L10.3067 21.6933" stroke="#007BFC" stroke-width="1.5319" stroke-linecap="round" stroke-linejoin="round"/>
<path d="M15.4933 16.5067L15.0267 16.9733" stroke="#007BFC" stroke-width="1.5319" stroke-linecap="round" stroke-linejoin="round"/>
<path d="M14.9511 17.0489C16.2127 18.3106 16.2127 20.3561 14.9511 21.6178C13.6894 22.8794 11.6439 22.8794 10.3822 21.6178C9.12056 20.3561 9.12056 18.3106 10.3822 17.0489C11.6439 15.7873 13.6894 15.7873 14.9511 17.0489" stroke="#007BFC" stroke-width="1.5319" stroke-linecap="round" stroke-linejoin="round"/>
<path d="M21.16 14.4933L21.56 15.3333" stroke="#007BFC" stroke-width="1.5319" stroke-linecap="round" stroke-linejoin="round"/>
<path d="M18.44 8.66667L18.84 9.50667" stroke="#007BFC" stroke-width="1.5319" stroke-linecap="round" stroke-linejoin="round"/>
<path d="M21.56 8.66667L21.16 9.50667" stroke="#007BFC" stroke-width="1.5319" stroke-linecap="round" stroke-linejoin="round"/>
<path d="M18.84 14.4933L18.44 15.3333" stroke="#007BFC" stroke-width="1.5319" stroke-linecap="round" stroke-linejoin="round"/>
<path d="M23.3333 10.44L22.4933 10.84" stroke="#007BFC" stroke-width="1.5319" stroke-linecap="round" stroke-linejoin="round"/>
<path d="M16.6667 13.56L17.5067 13.16" stroke="#007BFC" stroke-width="1.5319" stroke-linecap="round" stroke-linejoin="round"/>
<path d="M23.3333 13.56L22.4933 13.16" stroke="#007BFC" stroke-width="1.5319" stroke-linecap="round" stroke-linejoin="round"/>
<path d="M17.5067 10.84L16.6667 10.44" stroke="#007BFC" stroke-width="1.5319" stroke-linecap="round" stroke-linejoin="round"/>
<path d="M21.9507 10.0493C23.028 11.1267 23.028 12.8733 21.9507 13.9507C20.8733 15.028 19.1267 15.028 18.0493 13.9507C16.972 12.8734 16.972 11.1267 18.0493 10.0493C19.1267 8.97201 20.8733 8.97201 21.9507 10.0493" stroke="#007BFC" stroke-width="1.5319" stroke-linecap="round" stroke-linejoin="round"/>
<path fill-rule="evenodd" clip-rule="evenodd" d="M20.4413 27.9813H11.5587C7.384 27.9813 4 24.5973 4 20.4227V11.54C4 7.36533 7.384 3.98133 11.5587 3.98133H20.44C24.616 3.98133 28 7.36533 28 11.54V20.4213C28 24.5973 24.616 27.9813 20.4413 27.9813Z" stroke="#007BFC" stroke-width="2" stroke-linecap="round" stroke-linejoin="round"/>
</svg>
