<svg width="32" height="32" viewBox="0 0 32 32" fill="none" xmlns="http://www.w3.org/2000/svg">
<path fill-rule="evenodd" clip-rule="evenodd" d="M20.4034 22.017L25.2554 26.3299C25.7085 26.7327 26.3764 26.779 26.8808 26.4427L27.8747 25.7801C28.4632 25.3877 28.8717 24.7778 29.0104 24.0843L29.178 23.2462C29.4106 22.0834 29.3817 20.8835 29.0936 19.7332L26.4437 9.15526C26.0562 7.6083 24.9056 6.36634 23.3927 5.86204L22.5249 5.57281C21.3508 5.18144 20.0693 5.27252 18.9623 5.82601L18.3061 6.15412C18.1209 6.24669 17.9168 6.29489 17.7098 6.29489H14.2902C14.0833 6.29489 13.8791 6.24669 13.694 6.15412L13.0377 5.82601C11.9307 5.27252 10.6492 5.18144 9.47507 5.57281L8.60735 5.86204C7.09441 6.36633 5.94375 7.6083 5.55623 9.15526L2.90643 19.7332C2.61829 20.8835 2.58946 22.0834 2.82203 23.2462L2.98966 24.0843C3.12836 24.7778 3.53687 25.3878 4.12532 25.7801L5.11924 26.4427C5.6237 26.779 6.29153 26.7327 6.74466 26.3299L11.5967 22.017C11.8407 21.8001 12.1559 21.6802 12.4825 21.6802H19.5176C19.8441 21.6803 20.1593 21.8001 20.4034 22.017Z" stroke="#007BFC" stroke-width="2" stroke-linecap="round" stroke-linejoin="round"/>
<path d="M8.66666 14H12.6667" stroke="#007BFC" stroke-width="2" stroke-linecap="round" stroke-linejoin="round"/>
<path d="M10.6667 12V16" stroke="#007BFC" stroke-width="2" stroke-linecap="round" stroke-linejoin="round"/>
<path d="M20.9992 16.3708C20.999 16.5548 20.8498 16.7038 20.6658 16.7037C20.4818 16.7036 20.3327 16.5545 20.3326 16.3705C20.3325 16.1865 20.4815 16.0373 20.6655 16.037C20.754 16.0369 20.839 16.0721 20.9016 16.1347C20.9642 16.1973 20.9993 16.2822 20.9992 16.3708" stroke="#007BFC" stroke-width="2" stroke-linecap="round" stroke-linejoin="round"/>
<path d="M21.0004 11.63C21.0002 11.814 20.8509 11.963 20.667 11.963C20.483 11.9629 20.3338 11.8138 20.3338 11.6298C20.3337 11.4458 20.4827 11.2965 20.6667 11.2963C20.7552 11.2962 20.8402 11.3313 20.9028 11.3939C20.9654 11.4565 21.0005 11.5415 21.0004 11.63" stroke="#007BFC" stroke-width="2" stroke-linecap="round" stroke-linejoin="round"/>
<path d="M23.0365 13.6673C23.2205 13.6675 23.3695 13.8168 23.3694 14.0008C23.3693 14.1847 23.2202 14.3339 23.0362 14.3339C22.8522 14.334 22.703 14.185 22.7027 14.001C22.7026 13.9125 22.7378 13.8275 22.8004 13.7649C22.863 13.7023 22.948 13.6672 23.0365 13.6673" stroke="#007BFC" stroke-width="2" stroke-linecap="round" stroke-linejoin="round"/>
<path d="M18.2958 13.6661C18.4798 13.6663 18.6288 13.8156 18.6287 13.9996C18.6286 14.1835 18.4795 14.3327 18.2955 14.3327C18.1115 14.3328 17.9623 14.1838 17.962 13.9998C17.9619 13.9113 17.997 13.8263 18.0597 13.7637C18.1223 13.7011 18.2072 13.666 18.2958 13.6661" stroke="#007BFC" stroke-width="2" stroke-linecap="round" stroke-linejoin="round"/>
</svg>
