<svg width="32" height="32" viewBox="0 0 32 32" fill="none" xmlns="http://www.w3.org/2000/svg">
<path d="M17.1667 25.3333H6.66667C5.19333 25.3333 4 24.14 4 22.6667V6.66667C4 5.19333 5.19333 4 6.66667 4H18.6667C20.14 4 21.3333 5.19333 21.3333 6.66667" stroke="#007BFC" stroke-width="2" stroke-linecap="round" stroke-linejoin="round"/>
<path d="M21.3333 6.66666V10.6667" stroke="#007BFC" stroke-width="2" stroke-linecap="round" stroke-linejoin="round"/>
<path d="M12.6653 21.1107C12.5427 21.1107 12.4427 21.2107 12.444 21.3333C12.444 21.456 12.544 21.556 12.6667 21.556C12.7893 21.556 12.8893 21.456 12.8893 21.3333C12.8893 21.2107 12.7893 21.1107 12.6653 21.1107" stroke="#007BFC" stroke-width="2" stroke-linecap="round" stroke-linejoin="round"/>
<path fill-rule="evenodd" clip-rule="evenodd" d="M19.8333 10.6667H25.3333C26.8067 10.6667 28 11.86 28 13.3333V25.3333C28 26.8067 26.8067 28 25.3333 28H19.8333C18.36 28 17.1667 26.8067 17.1667 25.3333V13.3333C17.1667 11.86 18.36 10.6667 19.8333 10.6667Z" stroke="#007BFC" stroke-width="2" stroke-linecap="round" stroke-linejoin="round"/>
<path d="M21.4133 25H23.7467" stroke="#007BFC" stroke-width="2" stroke-linecap="round" stroke-linejoin="round"/>
</svg>
