<svg width="32" height="32" viewBox="0 0 32 32" fill="none" xmlns="http://www.w3.org/2000/svg">
<path d="M8.45339 11.6361C4.84882 12.5807 2.47757 14.1826 2.47757 16C2.47757 18.9044 8.53178 21.2588 16.0001 21.2588C17.0185 21.2588 18.007 21.2114 18.961 21.1284" stroke="#151C50" stroke-opacity="0.5" stroke-width="2" stroke-linecap="round" stroke-linejoin="round"/>
<path d="M13.0391 21.1284C12.4903 20.3437 11.955 19.5113 11.4458 18.6294C7.71167 12.1617 6.72354 5.74131 9.23875 4.28914C10.8115 3.38108 13.3817 4.63094 16 7.27619" stroke="#151C50" stroke-opacity="0.5" stroke-width="2" stroke-linecap="round" stroke-linejoin="round"/>
<path d="M8.44496 20.3619C7.46322 23.952 7.66597 26.8028 9.23876 27.7108C11.754 29.1631 16.8202 25.0971 20.5542 18.6294C21.0635 17.7475 21.5166 16.8678 21.9217 16" stroke="#151C50" stroke-opacity="0.5" stroke-width="2" stroke-linecap="round" stroke-linejoin="round"/>
<path d="M16 24.7239C18.6183 27.3692 21.1885 28.6189 22.7613 27.7109C25.2765 26.2587 24.2883 19.8384 20.5542 13.3707C20.045 12.4887 19.5098 11.6564 18.9609 10.8717" stroke="#151C50" stroke-opacity="0.5" stroke-width="2" stroke-linecap="round" stroke-linejoin="round"/>
<path d="M23.5551 20.3619C27.1551 19.4171 29.5225 17.8161 29.5225 16C29.5225 13.0957 23.4683 10.7413 16 10.7413C14.9816 10.7413 13.9931 10.7887 13.0391 10.8717" stroke="#151C50" stroke-opacity="0.5" stroke-width="2" stroke-linecap="round" stroke-linejoin="round"/>
<path d="M10.0783 16C10.4835 15.1323 10.9366 14.2526 11.4458 13.3706C15.1799 6.90292 20.2461 2.83692 22.7613 4.28912C24.334 5.19719 24.5368 8.04802 23.5551 11.6381" stroke="#151C50" stroke-opacity="0.5" stroke-width="2" stroke-linecap="round" stroke-linejoin="round"/>
<path d="M16.3339 16.0004C16.3337 16.1845 16.1844 16.3336 16.0003 16.3335C15.8162 16.3334 15.667 16.1842 15.667 16.0002C15.6669 15.8161 15.816 15.6668 16 15.6665C16.0886 15.6664 16.1736 15.7016 16.2362 15.7642C16.2989 15.8269 16.334 15.9119 16.3339 16.0004" stroke="#151C50" stroke-opacity="0.5" stroke-width="2" stroke-linecap="round" stroke-linejoin="round"/>
</svg>
